<svg xmlns="http://www.w3.org/2000/svg" width="1119" height="528" aria-labelledby="archify-diagram-title archify-diagram-description" style="font-family:Consolas,&quot;Malgun Gothic&quot;,&quot;Apple SD Gothic Neo&quot;,sans-serif" viewBox="0 0 1119 528"><style>.c-mask{fill:#fff;stroke:none}.c-backend{fill:rgba(52,211,153,.18);stroke:#059669}.c-messagebus{fill:rgba(251,146,60,.15);stroke:#ea580c}.t-primary{fill:#0f172a}.t-muted{fill:#64748b}.t-dim{fill:#94a3b8}.a-default{stroke:#94a3b8;fill:none}.c-lane{fill:rgba(248,250,252,.65);stroke:#cbd5e1;stroke-dasharray:6,6}</style><rect width="100%" height="100%" style="fill:#f8fafc"/><desc id="archify-diagram-description">A workflow diagram generated by Archify.</desc><defs><marker id="arrowhead" markerHeight="7" markerWidth="10" orient="auto" refX="9" refY="3.5"><path d="m0 0 10 3.5L0 7z" style="fill:#94a3b8"/></marker><marker id="arrowhead-emphasis" markerHeight="7" markerWidth="10" orient="auto" refX="9" refY="3.5"><path d="m0 0 10 3.5L0 7z" style="fill:#059669"/></marker><marker id="arrowhead-security" markerHeight="7" markerWidth="10" orient="auto" refX="9" refY="3.5"><path d="m0 0 10 3.5L0 7z" style="fill:#e11d48"/></marker><marker id="arrowhead-dashed" markerHeight="7" markerWidth="10" orient="auto" refX="9" refY="3.5"><path d="m0 0 10 3.5L0 7z" style="fill:#7c3aed"/></marker><pattern id="grid" width="40" height="40" patternUnits="userSpaceOnUse"><path stroke-width=".5" d="M40 0H0v40" style="stroke:#e2e8f0;fill:none"/></pattern></defs><rect width="100%" height="100%" fill="url(#grid)"/><rect width="1063" height="104" x="40" y="52" class="c-lane" rx="10"/><text x="54" y="74" class="t-dim" font-size="10" font-weight="600">01 / 메시지 발행과 처리</text><rect width="1063" height="104" x="40" y="176" class="c-lane" rx="10"/><text x="54" y="198" class="t-dim" font-size="10" font-weight="600">02 / 구독 시작</text><rect width="1063" height="104" x="40" y="300" class="c-lane" rx="10"/><text x="54" y="322" class="t-dim" font-size="10" font-weight="600">03 / 구독 종료와 별도 서비스</text><path stroke-width="1.4" marker-end="url(#arrowhead)" d="M138 151v16h416v-16" class="a-default"/><path stroke-width="1.4" marker-end="url(#arrowhead)" d="M436 243h118v-92" class="a-default"/><path stroke-width="1.4" marker-end="url(#arrowhead)" d="M554 335V151" class="a-default"/><path stroke-width="1.4" marker-end="url(#arrowhead)" d="M644 119h70.8" class="a-default"/><path stroke-width="1.4" marker-end="url(#arrowhead)" d="M436 367h28" class="a-default"/><path stroke-width="1.4" marker-end="url(#arrowhead)" d="M228 243h28" class="a-default"/><g id="node-domain_event" aria-label="Focus 요청 · 이벤트 발행, 저장 · 로드 · 샷 변경, 메시지 발행과 처리" aria-pressed="false" tabindex="0"><rect width="180" height="64" x="48" y="87" class="c-mask" rx="6"/><rect width="180" height="64" x="48" y="87" stroke-width="1.5" class="c-backend" rx="6"/><text x="138" y="108" class="t-primary" font-size="13" font-weight="600" text-anchor="middle">요청 · 이벤트 발행</text><text x="138" y="125" class="t-muted" font-size="10" text-anchor="middle">저장 · 로드 · 샷 변경</text></g><g id="node-message_service" aria-label="Focus 메시지 Subsystem, GameInstance, 메시지 발행과 처리" aria-pressed="false" tabindex="0"><rect width="180" height="64" x="464" y="87" class="c-mask" rx="6"/><rect width="180" height="64" x="464" y="87" stroke-width="1.5" class="c-messagebus" rx="6"/><text x="554" y="108" class="t-primary" font-size="13" font-weight="600" text-anchor="middle">메시지 Subsystem</text><text x="554" y="125" class="t-muted" font-size="10" text-anchor="middle">GameInstance</text></g><g id="node-subscriber_callback" aria-label="Focus 구독자 콜백, 구조체 payload 처리, 메시지 발행과 처리" aria-pressed="false" tabindex="0"><rect width="180" height="64" x="714.8" y="87" class="c-mask" rx="6"/><rect width="180" height="64" x="714.8" y="87" stroke-width="1.5" class="c-backend" rx="6"/><text x="804.8" y="108" class="t-primary" font-size="13" font-weight="600" text-anchor="middle">구독자 콜백</text><text x="804.8" y="125" class="t-muted" font-size="10" text-anchor="middle">구조체 payload 처리</text></g><g id="node-subscriber_init" aria-label="Focus 구독자 초기화, UI Controller 등, 구독 시작" aria-pressed="false" tabindex="0"><rect width="180" height="64" x="48" y="211" class="c-mask" rx="6"/><rect width="180" height="64" x="48" y="211" stroke-width="1.5" class="c-backend" rx="6"/><text x="138" y="232" class="t-primary" font-size="13" font-weight="600" text-anchor="middle">구독자 초기화</text><text x="138" y="249" class="t-muted" font-size="10" text-anchor="middle">UI Controller 등</text></g><g id="node-listener_handle" aria-label="Focus 채널 구독, 핸들 · 약한 참조 보관, 구독 시작" aria-pressed="false" tabindex="0"><rect width="180" height="64" x="256" y="211" class="c-mask" rx="6"/><rect width="180" height="64" x="256" y="211" stroke-width="1.5" class="c-backend" rx="6"/><text x="346" y="232" class="t-primary" font-size="13" font-weight="600" text-anchor="middle">채널 구독</text><text x="346" y="249" class="t-muted" font-size="10" text-anchor="middle">핸들 · 약한 참조 보관</text></g><g id="node-subscriber_end" aria-label="Focus 구독자 종료, 종료 시 정리, 구독 종료와 별도 서비스" aria-pressed="false" tabindex="0"><rect width="180" height="64" x="256" y="335" class="c-mask" rx="6"/><rect width="180" height="64" x="256" y="335" stroke-width="1.5" class="c-backend" rx="6"/><text x="346" y="356" class="t-primary" font-size="13" font-weight="600" text-anchor="middle">구독자 종료</text><text x="346" y="373" class="t-muted" font-size="10" text-anchor="middle">종료 시 정리</text></g><g id="node-listener_remove" aria-label="Focus 구독 등록 해제, 핸들 사용, 구독 종료와 별도 서비스" aria-pressed="false" tabindex="0"><rect width="180" height="64" x="464" y="335" class="c-mask" rx="6"/><rect width="180" height="64" x="464" y="335" stroke-width="1.5" class="c-backend" rx="6"/><text x="554" y="356" class="t-primary" font-size="13" font-weight="600" text-anchor="middle">구독 등록 해제</text><text x="554" y="373" class="t-muted" font-size="10" text-anchor="middle">핸들 사용</text></g><g id="node-toast_service" aria-label="Focus 전용 토스트 서비스, GameInstance · 알림 처리, 구독 종료와 별도 서비스" aria-pressed="false" tabindex="0"><rect width="180" height="64" x="714.8" y="335" class="c-mask" rx="6"/><rect width="180" height="64" x="714.8" y="335" stroke-width="1.5" class="c-backend" rx="6"/><text x="804.8" y="356" class="t-primary" font-size="13" font-weight="600" text-anchor="middle">전용 토스트 서비스</text><text x="804.8" y="373" class="t-muted" font-size="10" text-anchor="middle">GameInstance · 알림 처리</text></g><rect width="86.8" height="14" x="302.6" y="147" class="c-mask" rx="3"/><text x="346" y="157" class="t-muted" font-size="10" text-anchor="middle">GameplayTag 채널</text><rect width="62.8" height="14" x="463.6" y="223" class="c-mask" rx="3"/><text x="495" y="233" class="t-muted" font-size="10" text-anchor="middle">리스너 등록</text><rect width="30" height="14" x="539" y="315" class="c-mask" rx="3"/><text x="554" y="325" class="t-muted" font-size="10" text-anchor="middle">해제</text><rect width="62.8" height="14" x="648" y="99" class="c-mask" rx="3"/><text x="679.4" y="109" class="t-muted" font-size="10" text-anchor="middle">메시지 전달</text><text x="20" y="428" class="t-primary" font-size="14" font-weight="650">범례</text><rect width="14" height="9" x="20" y="440" class="c-backend" rx="2"/><text x="42" y="448" class="t-muted" font-size="9.5" font-weight="500">처리 로직</text><rect width="14" height="9" x="118" y="440" class="c-messagebus" rx="2"/><text x="140" y="448" class="t-muted" font-size="9.5" font-weight="500">메시지 통신</text></svg>