<svg xmlns="http://www.w3.org/2000/svg" width="942" height="404" aria-labelledby="archify-diagram-title archify-diagram-description" style="font-family:Consolas,&quot;Malgun Gothic&quot;,&quot;Apple SD Gothic Neo&quot;,sans-serif" viewBox="0 0 942 404"><style>.c-mask{fill:#fff;stroke:none}.c-frontend{fill:rgba(34,211,238,.15);stroke:#0891b2}.c-messagebus{fill:rgba(251,146,60,.15);stroke:#ea580c}.t-primary{fill:#0f172a}.t-muted{fill:#64748b}.t-dim{fill:#94a3b8}.a-default{stroke:#94a3b8;fill:none}.c-lane{fill:rgba(248,250,252,.65);stroke:#cbd5e1;stroke-dasharray:6,6}</style><rect width="100%" height="100%" style="fill:#f8fafc"/><desc id="archify-diagram-description">A workflow diagram generated by Archify.</desc><defs><marker id="arrowhead" markerHeight="7" markerWidth="10" orient="auto" refX="9" refY="3.5"><path d="m0 0 10 3.5L0 7z" style="fill:#94a3b8"/></marker><marker id="arrowhead-emphasis" markerHeight="7" markerWidth="10" orient="auto" refX="9" refY="3.5"><path d="m0 0 10 3.5L0 7z" style="fill:#059669"/></marker><marker id="arrowhead-security" markerHeight="7" markerWidth="10" orient="auto" refX="9" refY="3.5"><path d="m0 0 10 3.5L0 7z" style="fill:#e11d48"/></marker><marker id="arrowhead-dashed" markerHeight="7" markerWidth="10" orient="auto" refX="9" refY="3.5"><path d="m0 0 10 3.5L0 7z" style="fill:#7c3aed"/></marker><pattern id="grid" width="40" height="40" patternUnits="userSpaceOnUse"><path stroke-width=".5" d="M40 0H0v40" style="stroke:#e2e8f0;fill:none"/></pattern></defs><rect width="100%" height="100%" fill="url(#grid)"/><rect width="886" height="104" x="40" y="52" class="c-lane" rx="10"/><text x="54" y="74" class="t-dim" font-size="10" font-weight="600">01 / 상태 전환</text><rect width="886" height="104" x="40" y="176" class="c-lane" rx="10"/><text x="54" y="198" class="t-dim" font-size="10" font-weight="600">02 / UI 공유 상태</text><path stroke-width="1.4" marker-end="url(#arrowhead)" d="M554 119h28" class="a-default"/><path stroke-width="1.4" marker-end="url(#arrowhead)" d="M376 119h28" class="a-default"/><path stroke-width="1.4" marker-end="url(#arrowhead)" d="M198 119h28" class="a-default"/><path stroke-width="1.4" marker-end="url(#arrowhead)" d="M376 243h103v-98" class="a-default"/><path stroke-width="1.4" marker-end="url(#arrowhead)" d="M301 217v-72" class="a-default"/><g id="node-exit_state" aria-label="Focus 이전 State 종료, 상태 전환" aria-pressed="false" tabindex="0"><rect width="150" height="52" x="48" y="93" class="c-mask" rx="6"/><rect width="150" height="52" x="48" y="93" stroke-width="1.5" class="c-frontend" rx="6"/><text x="123" y="114" class="t-primary" font-size="13" font-weight="600" text-anchor="middle">이전 State 종료</text></g><g id="node-enter_view" aria-label="Focus 새 State 화면 구성, LayoutSpec · Registry, 상태 전환" aria-pressed="false" tabindex="0"><rect width="150" height="52" x="226" y="93" class="c-mask" rx="6"/><rect width="150" height="52" x="226" y="93" stroke-width="1.5" class="c-frontend" rx="6"/><text x="301" y="114" class="t-primary" font-size="13" font-weight="600" text-anchor="middle">새 State 화면 구성</text><text x="301" y="131" class="t-muted" font-size="10" text-anchor="middle">LayoutSpec · Registry</text></g><g id="node-edit_mode" aria-label="Focus 편집 모드 · 선택, 상태 전환" aria-pressed="false" tabindex="0"><rect width="150" height="52" x="404" y="93" class="c-mask" rx="6"/><rect width="150" height="52" x="404" y="93" stroke-width="1.5" class="c-frontend" rx="6"/><text x="479" y="114" class="t-primary" font-size="13" font-weight="600" text-anchor="middle">편집 모드 · 선택</text></g><g id="node-input_strategy" aria-label="Focus 입력 전략 설정, 상태 전환" aria-pressed="false" tabindex="0"><rect width="92" height="52" x="582" y="93" class="c-mask" rx="6"/><rect width="92" height="52" x="582" y="93" stroke-width="1.5" class="c-frontend" rx="6"/><text x="628" y="114" class="t-primary" font-size="10" font-weight="600" text-anchor="middle">입력 전략 설정</text></g><g id="node-ui_blackboard" aria-label="Focus 자체 Blackboard, UI 공유 상태 · 변경 알림, UI 공유 상태" aria-pressed="false" tabindex="0"><rect width="150" height="52" x="226" y="217" class="c-mask" rx="6"/><rect width="150" height="52" x="226" y="217" stroke-width="1.5" class="c-messagebus" rx="6"/><text x="301" y="238" class="t-primary" font-size="13" font-weight="600" text-anchor="middle">자체 Blackboard</text><text x="301" y="255" class="t-muted" font-size="10" text-anchor="middle">UI 공유 상태 · 변경 알림</text></g><rect width="53.2" height="14" x="400.9" y="223" class="c-mask" rx="3"/><text x="427.5" y="233" class="t-muted" font-size="10" text-anchor="middle">상태 전달</text><rect width="53.2" height="14" x="274.4" y="197" class="c-mask" rx="3"/><text x="301" y="207" class="t-muted" font-size="10" text-anchor="middle">화면 갱신</text><text x="20" y="304" class="t-primary" font-size="14" font-weight="650">범례</text><rect width="14" height="9" x="20" y="316" class="c-frontend" rx="2"/><text x="42" y="324" class="t-muted" font-size="9.5" font-weight="500">사용자 UI</text><rect width="14" height="9" x="101" y="316" class="c-messagebus" rx="2"/><text x="123" y="324" class="t-muted" font-size="9.5" font-weight="500">메시지 통신</text></svg>