<svg xmlns="http://www.w3.org/2000/svg" viewBox="0 0 512 512" role="img" aria-labelledby="title desc">
	<title id="title">Kevin MacLeod music cover</title>
	<desc id="desc">A dreamy night-sky cover for Kevin MacLeod background music</desc>
	<defs>
		<linearGradient id="bg" x1="0" y1="0" x2="1" y2="1">
			<stop offset="0" stop-color="#172554" />
			<stop offset="0.55" stop-color="#4338ca" />
			<stop offset="1" stop-color="#0891b2" />
		</linearGradient>
		<radialGradient id="glow">
			<stop offset="0" stop-color="#fff" stop-opacity="0.95" />
			<stop offset="1" stop-color="#fff" stop-opacity="0" />
		</radialGradient>
	</defs>
	<rect width="512" height="512" rx="96" fill="url(#bg)" />
	<circle cx="390" cy="116" r="96" fill="url(#glow)" />
	<g fill="#fff">
		<circle cx="96" cy="110" r="5" opacity="0.8" />
		<circle cx="150" cy="70" r="3" opacity="0.65" />
		<circle cx="294" cy="108" r="4" opacity="0.75" />
		<circle cx="430" cy="244" r="4" opacity="0.7" />
		<circle cx="78" cy="286" r="3" opacity="0.65" />
	</g>
	<path d="M134 321c56-85 92-126 126-126 31 0 45 34 73 34 18 0 37-14 57-42-14 97-57 157-128 157-43 0-77-23-128-23z" fill="#fff" opacity="0.9" />
	<path d="M114 367h284" stroke="#fff" stroke-width="10" stroke-linecap="round" opacity="0.45" />
	<text x="256" y="430" text-anchor="middle" fill="#fff" font-family="Arial, sans-serif" font-size="30" font-weight="700" letter-spacing="3">KEVIN MACLEOD</text>
</svg>
